#!OML:ASF F:\VICON\USERDATA\INSTALL\rory3\rory3.ASF
:FULLY-SPECIFIED
:DEGREES
321
root -0.0756866 17.2472 29.5758 0.700191 2.57629 7.08503
lowerback 4.80852 -2.11032 -8.29206
upperback 1.07669 -3.2027 1.13532
thorax -1.05742 -1.59199 6.00638
lowerneck -14.4231 -1.55453 -9.42306
upperneck 25.7832 -0.896731 4.20046
head 10.7482 -0.830007 2.99728
rclavicle 2.59414e-014 3.10104e-014
rhumerus -36.8985 -16.9222 -75.284
rradius 26.0909
rwrist 11.8775
rhand -12.8546 18.1615
rfingers 7.12502
rthumb 13.2333 -11.3984
lclavicle 2.59414e-014 3.10104e-014
lhumerus -23.7341 2.81028 80.5949
lradius 37.537
lwrist -6.98485
lhand -16.7266 25.5389
lfingers 7.12502
lthumb 9.49912 55.3048
rfemur -36.9995 -0.367801 12.9802
rtibia 30.7677
rfoot -11.8068 -15.6957
rtoes -7.06752
lfemur 17.3352 -3.01299 -30.8904
ltibia -2.22639e-014
lfoot -9.45506 0.563601
ltoes -8.22249
322
root -0.101782 17.2449 29.7646 0.851403 2.71254 6.78343
lowerback 4.86704 -2.18052 -8.09551
upperback 0.985896 -3.29307 1.25745
thorax -1.17402 -1.62953 6.03308
lowerneck -14.4625 -1.57159 -9.41669
upperneck 25.8289 -0.899934 4.13082
head 10.7736 -0.840135 2.97139
rclavicle -6.36111e-015 2.62396e-014
rhumerus -37.2832 -17.4883 -74.8891
rradius 25.7741
rwrist 12.2959
rhand -12.9769 18.2861
rfingers 7.12502
rthumb 13.1154 -11.2815
lclavicle -6.36111e-015 2.62396e-014
lhumerus -23.5884 2.43893 80.4663
lradius 38.0316
lwrist -6.34074
lhand -17.371 25.6226
lfingers 7.12502
lthumb 8.87732 55.4158
rfemur -36.9018 1.05746 12.6061
rtibia 28.864
rfoot -12.2379 -16.6703
rtoes -8.8116
lfemur 17.8368 -3.19701 -30.4418
ltibia 3.18055e-015
lfoot -9.55142 0.532803
ltoes -8.53833
323
root -0.127652 17.2376 29.9474 1.02817 3.05639 6.72713
lowerback 4.90875 -2.33163 -8.15886
upperback 0.870256 -3.50412 1.34375
thorax -1.27404 -1.72674 6.17378
lowerneck -14.288 -1.54985 -9.39918
upperneck 25.7445 -0.856818 4.00271
head 10.7051 -0.83342 2.92494
rclavicle 1.50082e-014 -6.36111e-015
rhumerus -37.6974 -17.5652 -74.6593
rradius 25.6466
rwrist 12.1158
rhand -12.8765 18.0198
rfingers 7.12502
rthumb 13.2123 -11.5416
lclavicle 1.50082e-014 -6.36111e-015
lhumerus -23.4633 2.07287 80.4085
lradius 38.1417
lwrist -5.65638
lhand -18.5759 24.1879
lfingers 7.12502
lthumb 7.71452 54.0272
rfemur -36.8565 2.31325 11.9331
rtibia 27.3856
rfoot -12.518 -17.6936
rtoes -10.5652
lfemur 18.2959 -3.5899 -30.2405
ltibia -1.27222e-014
lfoot -9.55204 0.388207
ltoes -8.84399
324
root -0.154111 17.2286 30.1349 1.13256 3.42391 6.84963
lowerback 4.85953 -2.45309 -8.37649
upperback 0.847213 -3.67375 1.34163
thorax -1.22853 -1.81229 6.29867
lowerneck -14.1246 -1.51509 -9.27458
upperneck 25.6485 -0.800968 3.79959
head 10.6328 -0.818683 2.83474
rclavicle -4.32357e-014 -2.94201e-014
rhumerus -37.9726 -17.9232 -74.3723
rradius 25.3288
rwrist 12.2707
rhand -12.9487 17.8844
rfingers 7.12502
rthumb 13.1427 -11.6814
lclavicle -4.32357e-014 -2.94201e-014
lhumerus -23.0872 1.81813 80.2607
lradius 37.9806
lwrist -5.63897
lhand -18.5939 23.1046
lfingers 7.12502
lthumb 7.69713 52.9445
rfemur -36.7269 3.3042 11.1725
rtibia 26.3169
rfoot -13.1616 -18.5287
rtoes -10.3236
lfemur 18.8918 -3.98782 -30.2545
ltibia -9.22361e-014
lfoot -9.49262 0.137437
ltoes -11.9063
325
root -0.175491 17.2135 30.3366 1.13449 3.77871 6.94293
lowerback 4.71081 -2.58045 -8.51441
upperback 0.957596 -3.8326 1.35339
thorax -0.992901 -1.9065 6.38124
lowerneck -13.9314 -1.4966 -9.28784
upperneck 25.3581 -0.747072 3.642
head 10.4851 -0.807915 2.78065
rclavicle -9.0447e-015 -1.27222e-014
rhumerus -38.0346 -18.7503 -73.8589
rradius 24.7487
rwrist 13.0095
rhand -12.8953 18.0508
rfingers 7.12502
rthumb 13.1941 -11.5117
lclavicle -9.0447e-015 -1.27222e-014
lhumerus -22.5824 1.81943 80.1413
lradius 37.8287
lwrist -6.07567
lhand -18.3428 22.6284
lfingers 7.12502
lthumb 7.93947 52.4593
rfemur -36.4949 3.56213 10.7978
rtibia 25.7488
rfoot -13.8958 -18.4957
rtoes -9.37134
lfemur 19.7646 -4.35264 -30.2626
ltibia -1.59028e-014
lfoot -9.41128 -0.105501
ltoes -14.9602
326
root -0.19942 17.1953 30.538 0.96475 4.0455 6.61466
lowerback 4.92473 -2.68141 -8.2511
upperback 0.948342 -3.97135 1.47274
thorax -1.10799 -1.97099 6.37631
lowerneck -13.5971 -1.47565 -9.07321
upperneck 25.1031 -0.70757 3.27263
head 10.3237 -0.808372 2.61082
rclavicle 1.2424e-014 -1.03368e-014
rhumerus -38.4273 -19.222 -73.4002
rradius 24.4493
rwrist 13.4092
rhand -12.635 17.8637
rfingers 7.12502
rthumb 13.445 -11.6823
lclavicle 1.2424e-014 -1.03368e-014
lhumerus -22.3942 1.7405 80.0483
lradius 37.7882
lwrist -6.30468
lhand -18.9648 22.4855
lfingers 7.12502
lthumb 7.33916 52.3382
rfemur -36.1734 3.4234 11.2125
rtibia 25.7338
rfoot -14.0255 -17.9347
rtoes -9.33671
lfemur 20.7143 -4.6151 -29.8024
ltibia -1.59028e-014
lfoot -9.30241 -0.32464
ltoes -16.8843
327
root -0.223172 17.1815 30.7283 0.894994 4.26067 6.22622
lowerback 5.22916 -2.79283 -7.9399
upperback 0.804395 -4.13089 1.6436
thorax -1.41085 -2.03323 6.4116
lowerneck -13.3795 -1.39086 -9.07179
upperneck 25.1404 -0.608779 3.26151
head 10.2879 -0.766405 2.61922
rclavicle 1.32192e-014 -7.95139e-015
rhumerus -38.9262 -19.1275 -73.0993
rradius 24.3735
rwrist 13.4113
rhand -12.6534 17.2975
rfingers 7.12502
rthumb 13.4273 -12.2498
lclavicle 1.32192e-014 -7.95139e-015
lhumerus -22.4956 1.592 79.9792
lradius 37.9365
lwrist -6.05201
lhand -19.2669 22.3267
lfingers 7.12502
lthumb 7.04747 52.1894
rfemur -36.0946 3.05252 11.8359
rtibia 26.1909
rfoot -13.7382 -17.0494
rtoes -8.98782
lfemur 21.4416 -4.85898 -29.2309
ltibia -5.40694e-014
lfoot -8.97922 -0.788038
ltoes -18.0735
328
root -0.241475 17.1662 30.923 0.777372 4.51547 6.38933
lowerback 5.54055 -2.86953 -8.06841
upperback 0.727337 -4.26946 1.61429
thorax -1.63507 -2.08873 6.48295
lowerneck -13.4341 -1.31976 -9.38371
upperneck 25.5011 -0.560979 3.76503
head 10.4262 -0.724251 2.86627
rclavicle 4.70126e-014 -1.27222e-014
rhumerus -39.4796 -19.4216 -72.6549
rradius 24.2937
rwrist 13.6954
rhand -12.654 17.1718
rfingers 7.12502
rthumb 13.4267 -12.3755
lclavicle 4.70126e-014 -1.27222e-014
lhumerus -22.6645 1.58476 79.8951
lradius 38.2808
lwrist -6.41158
lhand -18.7155 22.882
lfingers 7.12502
lthumb 7.57973 52.7261
rfemur -35.9362 2.16621 12.0037
rtibia 26.9588
rfoot -13.863 -15.4634
rtoes -6.65148
lfemur 22.1944 -5.11687 -29.2964
ltibia 2.8625e-014
lfoot -8.53423 -1.31947
ltoes -19.367
329
root -0.263934 17.1461 31.1308 0.668367 4.663 6.51871
lowerback 5.60713 -2.90029 -8.22958
upperback 0.806891 -4.32339 1.58998
thorax -1.56988 -2.12064 6.55169
lowerneck -13.8112 -1.37658 -9.60849
upperneck 25.8454 -0.635224 4.09462
head 10.6327 -0.747519 3.0232
rclavicle 6.02318e-014 8.74653e-015
rhumerus -39.6543 -19.7218 -72.3691
rradius 23.9757
rwrist 13.9076
rhand -12.6844 17.2432
rfingers 7.12502
rthumb 13.3974 -12.3061
lclavicle 6.02318e-014 8.74653e-015
lhumerus -22.6062 1.64025 79.8065
lradius 38.5003
lwrist -7.05439
lhand -18.237 23.2298
lfingers 7.12502
lthumb 8.04158 53.0568
rfemur -35.7838 1.20789 12.3228
rtibia 27.956
rfoot -13.4481 -13.8523
rtoes -6.45967
lfemur 22.8521 -5.27589 -29.3096
ltibia 4.45278e-014
lfoot -7.95891 -1.89209
ltoes -20.753
